<svg xmlns="http://www.w3.org/2000/svg" width="1729" height="1802" fill="none"><mask id="a" width="1729" height="1802" x="0" y="0" maskUnits="userSpaceOnUse" style=""><path fill="#D9D9D9" d="M0 0h1728v1800.83H0z" style="" transform="matrix(-1 0 0 1 1728.71 .863)"/></mask><g mask="url(#a)"><g filter="url(#b)"><path fill="#FF7300" d="M243.146 442.489C56.421 296.6-247.47 322.512-376.076 353.704l179.126 923.906H851.931l944.119 33.15 265.09-728.258c5.7-7.723-39.35-65.812-265.09-236.39-282.19-213.223-705.48-75.755-838.158 97.211-132.674 172.966-481.339 181.526-714.746-.834Z" style=""/></g><g filter="url(#c)"><path stroke="red" stroke-width="71" d="M2061.14 582.5c5.7-7.723-39.35-65.812-265.1-236.39-282.18-213.223-705.47-75.755-838.149 97.211-132.674 172.966-481.339 181.526-714.745-.834C56.42 296.599-247.472 322.51-376.077 353.701" style=""/></g><g filter="url(#d)" opacity=".5"><path stroke="red" stroke-width="71" d="M2061.13 531.531c5.7-7.722-39.35-65.812-265.09-236.39-282.18-213.223-705.48-75.755-838.156 97.211-229.419 299.09-481.34 181.526-714.746-.834C56.412 245.63-247.479 271.541-376.085 302.732" style=""/></g><g filter="url(#e)"><path fill="#fff" d="M-478.381 1420.69c0 2117.34 655.442 1664.27 1382.846 1664.27 727.405 0 1251.315 143.55 1251.315-1664.27 0-267.57-589.68-484.482-1317.08-484.482-727.404 0-1317.081 216.912-1317.081 484.482Z" style=""/></g></g><defs><filter id="b" width="2845.68" height="1481.29" x="-580.078" y="33.467" color-interpolation-filters="sRGB" filterUnits="userSpaceOnUse"><feFlood flood-opacity="0" result="BackgroundImageFix"/><feBlend in="SourceGraphic" in2="BackgroundImageFix" result="shape"/><feGaussianBlur result="effect1_foregroundBlur_760_56865" stdDeviation="102"/></filter><filter id="c" width="2889.54" height="817.69" x="-588.445" y="-2.023" color-interpolation-filters="sRGB" filterUnits="userSpaceOnUse"><feFlood flood-opacity="0" result="BackgroundImageFix"/><feBlend in="SourceGraphic" in2="BackgroundImageFix" result="shape"/><feGaussianBlur result="effect1_foregroundBlur_760_56865" stdDeviation="102"/></filter><filter id="d" width="2889.54" height="867.63" x="-588.453" y="-52.992" color-interpolation-filters="sRGB" filterUnits="userSpaceOnUse"><feFlood flood-opacity="0" result="BackgroundImageFix"/><feBlend in="SourceGraphic" in2="BackgroundImageFix" result="shape"/><feGaussianBlur result="effect1_foregroundBlur_760_56865" stdDeviation="102"/></filter><filter id="e" width="3202.16" height="2757.44" x="-762.383" y="652.208" color-interpolation-filters="sRGB" filterUnits="userSpaceOnUse"><feFlood flood-opacity="0" result="BackgroundImageFix"/><feBlend in="SourceGraphic" in2="BackgroundImageFix" result="shape"/><feGaussianBlur result="effect1_foregroundBlur_760_56865" stdDeviation="142"/></filter></defs></svg>