<svg width="32" height="29" viewBox="0 0 32 29" fill="none" xmlns="http://www.w3.org/2000/svg">
<path d="M24.3959 25.211L25.6071 26.4222L28.0295 23.9998L26.8183 22.7887L24.3959 25.211ZM26.8183 22.7887L7.81844 3.78878L5.39605 6.21117L24.3959 25.211L26.8183 22.7887Z" fill="#EBE5D9"/>
<path d="M23.7166 18.7446L23.7166 20.4575L27.1424 20.4575L27.1424 18.7446L23.7166 18.7446ZM27.1424 18.7446L27.1424 4.99998L23.7166 4.99998L23.7166 18.7446L27.1424 18.7446Z" fill="#EBE5D9"/>
<path d="M6.3929 22.1317L4.68001 22.1317L4.68001 25.5575L6.3929 25.5575L6.3929 22.1317ZM20.7132 22.1317L6.3929 22.1317L6.3929 25.5575L20.7132 25.5575L20.7132 22.1317Z" fill="#EBE5D9"/>
</svg>
