<svg width="124" height="125" viewBox="0 0 124 125" fill="none" xmlns="http://www.w3.org/2000/svg">
<path d="M78.4 124.9C72.7 124.9 67.2 123.5 62.1 120.9C57.1 123.5 51.5 124.9 45.8 124.9C26.4 124.9 10.7 109 10.7 89.5C10.7 87 11 84.4 11.5 82C4.2 75.3 0 65.9 0 55.8C0 38 13.3 23 30.5 20.7C36.2 8.00001 48.5 0 62.5 0C76.3 0 88.9 8.29999 94.5 20.9C111.5 23.6 124 38.3 124 55.9C124 65.9 119.9 75.3 112.6 82C113.1 84.5 113.4 87 113.4 89.6C113.5 109 97.7 124.9 78.4 124.9ZM62.1 103.4L68.1 107C71.2 108.9 74.8 109.9 78.4 109.9C89.5 109.9 98.5 100.7 98.5 89.4C98.5 87.5 98.2 85.6 97.7 83.8L95.6 76.4L101.5 71.6C106.3 67.7 109 61.9 109 55.7C109 45.2 101.2 36.4 90.9 35.4L83.8 34.7L81.2 28C78.2 20.2 70.7 15 62.4 15C54 15 46.6 20.1 43.6 28L40.9 35L33.5 35.5C23 36.3 14.8 45.2 14.8 55.9C14.8 62.1 17.5 68 22.3 71.9L28.2 76.7L26.2 84.1C25.7 85.9 25.5 87.7 25.5 89.6C25.5 100.9 34.5 110.1 45.6 110.1C49.2 110.1 52.8 109.1 55.9 107.2L62.1 103.4Z" fill="#FE3D00"/>
</svg>
