<svg xmlns="http://www.w3.org/2000/svg" xmlns:xlink="http://www.w3.org/1999/xlink" viewBox="0 0 36 36"><path d="M 15.047 9 L 20.7 9 C 22.189 9 23.5 9.984 23.915 11.414 C 24.33 12.844 23.75 14.377 22.492 15.174 C 23.461 15.788 24.047 16.854 24.047 18.001 C 24.047 19.339 23.25 20.549 22.02 21.076 C 20.79 21.604 19.364 21.349 18.394 20.427 L 18.394 23.653 C 18.394 25.26 17.253 26.64 15.674 26.941 C 14.096 27.242 12.526 26.379 11.935 24.885 C 11.344 23.391 11.897 21.688 13.254 20.827 C 12.286 20.213 11.7 19.147 11.7 18.001 C 11.7 16.854 12.286 15.788 13.255 15.174 C 11.997 14.376 11.418 12.844 11.833 11.414 C 12.248 9.984 13.558 9 15.047 9 Z M 18.394 18.005 L 18.394 17.996 C 18.397 16.724 19.43 15.694 20.702 15.695 C 21.975 15.696 23.006 16.728 23.006 18.001 C 23.006 19.273 21.975 20.305 20.702 20.306 C 19.43 20.308 18.397 19.278 18.394 18.005 Z M 17.353 17.995 L 17.353 15.695 L 15.047 15.695 C 13.788 15.715 12.778 16.741 12.778 18 C 12.778 19.259 13.788 20.285 15.047 20.306 L 17.353 20.306 Z M 15.014 21.347 C 13.745 21.366 12.729 22.406 12.741 23.675 C 12.754 24.944 13.789 25.965 15.058 25.959 C 16.327 25.953 17.353 24.922 17.353 23.653 L 17.353 21.348 L 15.014 21.348 Z M 20.7 10.041 L 18.394 10.041 L 18.394 14.653 L 20.7 14.653 C 21.973 14.653 23.006 13.621 23.006 12.347 C 23.006 11.074 21.973 10.041 20.7 10.041 Z M 15.047 14.653 L 17.353 14.653 L 17.353 10.041 L 15.047 10.041 C 13.774 10.041 12.741 11.074 12.741 12.347 C 12.741 13.621 13.774 14.653 15.047 14.653 Z" fill="rgb(0, 0, 0)"></path></svg>