<svg width="45" height="45" viewBox="0 0 45 45" fill="none" xmlns="http://www.w3.org/2000/svg">
<path d="M4.73697 27.3847L16.4105 9.55723C17.0727 8.55607 17.9727 7.73458 19.03 7.16625C20.0873 6.59793 21.2689 6.30048 22.4693 6.30048C23.6697 6.30048 24.8513 6.59793 25.9086 7.16625C26.9659 7.73458 27.8659 8.55607 28.5281 9.55723L40.2016 27.2896C40.923 28.3842 41.3347 29.6536 41.3928 30.9633C41.4511 32.2728 41.1542 33.5738 40.5331 34.7283C39.912 35.8827 38.9899 36.8477 37.865 37.5205C36.7398 38.1933 35.4539 38.5495 34.1428 38.5508H10.7958C9.49974 38.5384 8.23053 38.1797 7.11986 37.5116C6.00919 36.8436 5.09752 35.8907 4.47936 34.7513C3.8612 33.6121 3.55912 32.3282 3.60441 31.0329C3.64971 29.7376 4.04074 28.478 4.73697 27.3847Z" fill="#BFBFB1"/>
</svg>
