<svg xmlns="http://www.w3.org/2000/svg" xmlns:xlink="http://www.w3.org/1999/xlink" viewBox="0 0 36 36"><g><defs><path d="M 22.661 15.296 C 22.661 15.296 21.197 19.881 21.087 20.27 C 21.045 19.881 19.979 11.642 19.979 11.642 C 17.484 11.642 16.156 13.41 15.454 15.296 C 15.454 15.296 13.678 19.898 13.534 20.287 C 13.525 19.923 13.263 15.347 13.263 15.347 C 13.111 13.046 11.013 11.65 9.313 11.65 L 11.36 24.136 C 13.974 24.127 15.378 22.359 16.114 20.482 C 16.114 20.482 17.678 16.421 17.746 16.235 C 17.763 16.413 18.871 24.136 18.871 24.136 C 21.485 24.136 22.897 22.478 23.659 20.668 L 27.313 11.642 C 24.725 11.642 23.363 13.41 22.661 15.296 Z" id="a1000z"></path><filter id="a1002z" x="0.0%" y="-142.9%" width="99.4%" height="385.1%" filterUnits="objectBoundingBox"><feGaussianBlur stdDeviation="0" in="SourceAlpha" result="a1004z"></feGaussianBlur><feOffset dx="0" dy="18" in="a1004z" result="a1005z"></feOffset><feComposite in="a1005z" in2="SourceAlpha" operator="arithmetic" k2="-1" k3="1" result="a1006z"></feComposite><feColorMatrix color-interpolation-filters="sRGB" values="0 0 0 0 0   0 0 0 0 0   0 0 0 0 0  0 0 0 1 0" type="matrix" in="a1006z" result="a1007z"></feColorMatrix></filter></defs><use xlink:href="#a1000z" fill="rgb(0, 0, 0)" clip-path="url(#a1001z)"></use><use fill="black" fill-opacity="1" filter="url(#a1002z)" xlink:href="#a1000z"></use></g></svg>