<svg width="48" height="48" viewBox="0 0 48 48" fill="none" xmlns="http://www.w3.org/2000/svg">
<path d="M39.0502 23.9995C41.0046 21.367 42.6212 18.7587 43.8071 16.2976C47.2996 9.04935 45.9762 5.47228 44.251 3.74708C42.5259 2.02309 38.9489 0.700835 31.7008 4.19225C29.2397 5.37818 26.6315 6.996 23.9991 8.94922C21.3667 6.9948 18.7585 5.37818 16.2974 4.19225C9.04931 0.699628 5.47232 2.02308 3.74716 3.74828C2.0232 5.47348 0.699774 9.05056 4.19232 16.2988C5.37822 18.7599 6.99601 21.3682 8.94918 24.0007C6.9948 26.6331 5.37822 29.2414 4.19232 31.7026C0.699774 38.9496 2.0232 42.5279 3.74836 44.2519C4.68091 45.1844 6.15393 46 8.45817 46C10.415 46 12.9689 45.4125 16.2986 43.8079C18.7597 42.622 21.3679 41.0042 24.0003 39.0509C26.6327 41.0054 29.2409 42.622 31.702 43.8079C35.0317 45.4125 37.5856 46 39.5424 46C41.8455 46 43.3197 45.1844 44.2522 44.2519C45.9774 42.5279 47.2996 38.9496 43.8083 31.7026C42.6224 29.2414 41.0046 26.6331 39.0514 24.0007L39.0502 23.9995ZM41.2507 6.74869C42.7358 8.23381 41.2169 13.6905 36.3153 20.5624C34.9931 19.0036 33.5695 17.4546 32.0579 15.9429C30.5463 14.4313 28.9972 13.0065 27.4386 11.6854C34.3102 6.78488 39.7668 5.26477 41.2507 6.74989V6.74869ZM33.666 23.9995C32.3064 25.6438 30.7731 27.3377 29.0563 29.0556C27.3396 30.7724 25.6446 32.3058 24.0003 33.6654C22.356 32.3058 20.6622 30.7724 18.9443 29.0556C17.2275 27.3389 15.6942 25.6438 14.3346 23.9995C15.6942 22.3551 17.2275 20.6613 18.9443 18.9433C20.661 17.2266 22.3548 15.6944 23.9979 14.3347C25.6434 15.6944 27.3372 17.2241 29.0551 18.9433C30.7719 20.6601 32.3052 22.3551 33.6648 23.9995H33.666ZM6.75111 6.74869C7.11303 6.38676 7.7102 6.20338 8.50522 6.20338C10.9759 6.20338 15.3648 7.98528 20.5584 11.6878C19.001 13.0089 17.4543 14.4313 15.9439 15.9417C14.4323 17.4534 13.0075 19.0024 11.6865 20.5611C6.78489 13.6893 5.26602 8.2326 6.75111 6.74748V6.74869ZM6.75111 41.2503C5.26602 39.7652 6.78489 34.3085 11.6865 27.4366C13.0087 28.9953 14.4323 30.5444 15.9439 32.056C17.4555 33.5677 19.0046 34.9925 20.5633 36.3135C13.6916 41.2141 8.23499 42.733 6.7499 41.2491L6.75111 41.2503ZM41.2519 41.2503C39.7668 42.7354 34.3102 41.2165 27.4386 36.3148C28.9972 34.9925 30.5463 33.5689 32.0579 32.0572C33.5695 30.5456 34.9943 28.9965 36.3153 27.4378C41.2169 34.3097 42.7358 39.7664 41.2507 41.2515L41.2519 41.2503Z" fill="#FE3D00"/>
</svg>
