<svg width="126" height="126" viewBox="0 0 126 126" fill="none" xmlns="http://www.w3.org/2000/svg">
<path d="M51.9249 17.525L54.625 6.225C56.625 -2.075 68.4249 -2.075 70.4249 6.225L73.125 17.525C77.225 34.525 90.525 47.825 107.525 51.925L118.825 54.625C127.125 56.625 127.125 68.425 118.825 70.425L107.525 73.125C90.525 77.225 77.225 90.525 73.125 107.525L70.4249 118.825C68.4249 127.125 56.625 127.125 54.625 118.825L51.9249 107.525C47.825 90.525 34.525 77.225 17.525 73.125L6.225 70.425C-2.075 68.425 -2.075 56.625 6.225 54.625L17.525 51.925C34.625 47.725 47.825 34.525 51.9249 17.525Z" fill="#FE3D00"/>
</svg>
