<svg width="332" height="315" viewBox="0 0 332 315" fill="none" xmlns="http://www.w3.org/2000/svg">
<path d="M0 174.375L74.9171 157.5C82.8367 217.862 90.4369 281.25 150.694 281.25C177.726 281.25 202.639 271.903 222.63 256.127L245.761 280.165C219.77 301.943 186.689 315 150.694 315C72.4787 315 8.10225 253.425 0 174.375Z" fill="#FFFCFC"/>
<path d="M74.9171 157.5C82.8367 97.1378 90.4369 33.75 150.694 33.75C178.154 33.75 203.429 43.3955 223.577 59.6287L246.684 35.6151C220.556 13.369 187.117 0 150.694 0C72.4787 0 8.10225 61.5752 0 140.625L74.9171 157.5Z" fill="#FFFCFC"/>
<path d="M224.727 174.375H280.662L241.836 228.356L265.038 252.469L330.923 160.866C332.359 158.869 332.359 156.128 330.923 154.131L265.756 63.5254L242.553 87.638L280.663 140.625H191.567L191.052 141.16C192.952 146.225 193.995 151.736 193.995 157.5C193.995 182.353 174.608 202.5 150.694 202.5C126.779 202.5 107.393 182.353 107.393 157.5C107.393 132.647 126.779 112.5 150.694 112.5C157.144 112.5 163.264 113.965 168.763 116.593L192.567 91.8555C180.571 83.5744 166.175 78.75 150.694 78.75C108.843 78.75 74.9171 114.008 74.9171 157.5C74.9171 200.992 108.843 236.25 150.694 236.25C186.97 236.25 217.293 209.758 224.727 174.375Z" fill="#FFFCFC"/>
</svg>
