<svg width="125" height="125" viewBox="0 0 125 125" fill="none" xmlns="http://www.w3.org/2000/svg">
<path d="M109.3 36.1L103.7 33.1C98.7 30.3 94.5 26.2 91.8 21.2L88.8 15.6C77.4 -5.2 47.5 -5.2 36.1 15.6L33.1 21.2C30.3 26.2 26.2 30.4 21.2 33.1L15.6 36.1C-5.2 47.5 -5.2 77.4 15.6 88.8L21.2 91.8C26.2 94.6 30.4 98.7 33.1 103.7L36.1 109.3C47.5 130.1 77.4 130.1 88.8 109.3L91.8 103.7C94.6 98.7 98.7 94.5 103.7 91.8L109.3 88.8C130.2 77.4 130.2 47.5 109.3 36.1ZM62.5 83.4C50.9 83.4 41.6 74 41.6 62.5C41.6 51 51 41.6 62.5 41.6C74.1 41.6 83.4 51 83.4 62.5C83.4 74 74 83.4 62.5 83.4Z" fill="#FE3D00"/>
</svg>
