<svg width="126" height="125" viewBox="0 0 126 125" fill="none" xmlns="http://www.w3.org/2000/svg">
<path fill-rule="evenodd" clip-rule="evenodd" d="M108.4 40.7C108.4 27.3 97.5 16.7 84.2 16.7H0V0H84.2C106.7 0 125 18.3 125 40.8C125 63.3 106.7 81.6 84.2 81.6H40.8999C39.5 81.6 38.3999 82.7 38.3999 84.1C38.3999 85.5 39.5 86.6 40.8999 86.6H125.1V103.3H40.8999C30.2999 103.3 21.7 94.7 21.7 84.1C21.7 73.5 30.2999 64.9 40.8999 64.9H84.2C97.6 64.9 108.4 54 108.4 40.7ZM16.7 84C16.7 97.4 27.6 108.2 40.8999 108.2L125.1 108V124.7H40.8999C18.3999 124.7 0.0999756 106.4 0.0999756 83.9C0.0999756 61.4 18.3999 43.1 40.8999 43.1H84.2C85.6 43.1 86.7 42 86.7 40.6C86.7 39.2 85.6 38.1 84.2 38.1H0V21.4H84.2C94.8 21.4 103.4 30 103.4 40.6C103.4 51.2 94.8 59.8 84.2 59.8H40.8999C27.5 59.8 16.7 70.6 16.7 84Z" fill="#FE3D00"/>
</svg>
