<svg width="45" height="45" viewBox="0 0 45 45" fill="none" xmlns="http://www.w3.org/2000/svg">
<g clip-path="url(#clip0_5343_570)">
<path d="M44.3624 20.1378L35.5071 4.77076C35.088 4.04086 34.4836 3.4345 33.7551 3.01291C33.0266 2.59132 32.1998 2.36942 31.3581 2.36963H13.6476C12.8115 2.36353 11.9884 2.5767 11.2604 2.9879C10.5324 3.39909 9.92493 3.99394 9.49851 4.71313L0.643245 20.0802C0.221768 20.8102 -0.00012207 21.6383 -0.00012207 22.4813C-0.00012207 23.3242 0.221768 24.1523 0.643245 24.8823L9.49851 40.2494C9.92158 40.9744 10.5273 41.5759 11.2553 41.9938C11.9833 42.4117 12.8082 42.6315 13.6476 42.6312H31.3581C32.1919 42.6374 33.013 42.4263 33.7405 42.0188C34.468 41.6112 35.0769 41.0213 35.5071 40.307L44.3624 24.94C44.7802 24.2087 44.9999 23.3811 44.9999 22.5389C44.9999 21.6967 44.7802 20.8691 44.3624 20.1378Z" fill="#BFBFB1"/>
</g>
<defs>
<clipPath id="clip0_5343_570">
<rect width="45" height="45" fill="white" transform="translate(0 0.000488281)"/>
</clipPath>
</defs>
</svg>
